<svg width="768" height="470" viewBox="0 0 768 470" fill="none" xmlns="http://www.w3.org/2000/svg">
<path d="M201.463 226.975L217.987 236.515V217.895L201.463 208.356V226.975ZM220.741 236.515L237.264 226.975V208.356L220.741 217.895V236.515ZM235.689 206.084L219.364 196.657L203.039 206.084L219.364 215.511L235.689 206.084ZM187.694 248.769H193.202V257.031H187.694V248.769ZM195.956 247.393H198.71V258.408H195.956V247.393ZM248.28 249.62V256.18L249.186 255.726L254.84 252.9L249.189 250.075L248.28 249.62ZM201.463 248.769H245.526V251.523H201.463V248.769ZM201.463 254.277H245.526V257.031H201.463V254.277Z" fill="#FF2E2E"/>
<path d="M295.096 166.158C292.177 166.161 289.379 167.322 287.314 169.385C285.249 171.449 284.087 174.246 284.081 177.165H179.432C179.428 174.245 178.266 171.446 176.201 169.382C174.136 167.317 171.337 166.156 168.417 166.152C162.342 166.152 157.401 171.093 157.401 177.168V261.162H157.486C157.825 263.823 159.121 266.27 161.133 268.044C163.145 269.818 165.734 270.798 168.417 270.801H267.557V181.299H284.078V184.053H270.311V281.816H173.924V303.848H292.342V270.801H295.096C301.171 270.801 306.112 265.86 306.112 259.785V177.173C306.112 171.098 301.171 166.158 295.096 166.158ZM176.678 179.919V252.507C174.66 250.215 171.702 248.77 168.417 248.77C165.131 248.77 162.174 250.215 160.155 252.507V177.168C160.155 172.613 163.862 168.906 168.417 168.906C172.972 168.906 176.678 172.613 176.678 177.168V179.919ZM242.772 237.754H245.526V196.445H242.772V193.691H251.034V196.445H248.28V237.754H251.034V240.508H242.772V237.754ZM198.71 182.676H201.464V185.43H237.264V182.676H240.018V190.938H237.264V188.184H201.464V190.938H198.71V182.676ZM198.71 205.404L219.364 193.479L240.018 205.404V228.564L219.364 240.489L198.71 228.564V205.404ZM258.535 254.131L250.42 258.191L247.52 259.639C247.509 259.645 247.495 259.642 247.481 259.647C247.302 259.737 247.104 259.784 246.903 259.785H201.464V261.162H193.202V259.785H184.94V246.016H193.202V244.639H201.464V246.016H246.903C247.104 246.018 247.303 246.065 247.484 246.153C247.495 246.159 247.509 246.156 247.52 246.162L250.422 247.613L258.535 251.669L261 252.9L258.535 254.131ZM289.589 268.047V301.094H176.678V284.57H182.186V292.832H184.94V284.57H190.448V290.078H193.202V284.57H198.71V292.832H201.464V284.57H206.971V290.078H209.725V284.57H215.233V292.832H217.987V284.57H223.495V290.078H226.249V284.57H231.756V292.832H234.51V284.57H240.018V290.078H242.772V284.57H248.28V292.832H251.034V284.57H256.542V290.078H259.296V284.57H264.803V292.832H267.557V284.57H273.065V279.062H281.327V276.309H273.065V270.801H278.573V268.047H273.065V262.539H281.327V259.785H273.065V254.277H278.573V251.523H273.065V246.016H281.327V243.262H273.065V237.754H278.573V235H273.065V229.492H281.327V226.738H273.065V221.23H278.573V218.477H273.065V212.969H281.327V210.215H273.065V204.707H278.573V201.953H273.065V196.445H281.327V193.691H273.065V188.184H284.081V259.785H286.835C286.835 257.353 287.911 255.186 289.589 253.671V268.047ZM303.358 252.507C302.326 251.332 301.055 250.391 299.631 249.746C298.206 249.102 296.66 248.769 295.096 248.77C293.196 248.77 291.436 249.296 289.875 250.146H289.589V250.317C288.559 250.895 287.629 251.634 286.835 252.507V177.173C286.835 172.619 290.541 168.912 295.096 168.912C299.651 168.912 303.358 172.619 303.358 177.173V252.507Z" fill="#FF2E2E"/>
<g clip-path="url(#clip0_6_14)">
<path d="M396.874 135.315L242.655 48.1474C240.451 46.9012 237.961 46.2463 235.428 46.2463C232.896 46.2463 230.406 46.9012 228.201 48.1474L73.9825 135.315C71.7182 136.594 69.8343 138.453 68.5236 140.699C67.2128 142.946 66.5221 145.5 66.5221 148.101V321.899C66.5221 324.5 67.2128 327.054 68.5236 329.301C69.8343 331.548 71.7182 333.406 73.9825 334.686L228.201 421.853C230.406 423.099 232.896 423.754 235.428 423.754C237.961 423.754 240.451 423.099 242.655 421.853L396.874 334.686" stroke="white" stroke-width="9.17969" stroke-linecap="round" stroke-linejoin="round"/>
<path d="M384.139 143L241.811 62.5535C239.776 61.4034 237.478 60.799 235.141 60.799C232.803 60.799 230.506 61.4034 228.471 62.5535L86.1422 143C84.0525 144.181 82.3139 145.896 81.1042 147.97C79.8945 150.043 79.257 152.4 79.257 154.801V315.199C79.257 317.6 79.8945 319.957 81.1042 322.03C82.3139 324.104 84.0525 325.819 86.1422 327L228.471 407.447C230.506 408.597 232.803 409.201 235.141 409.201C237.478 409.201 239.776 408.597 241.811 407.447L384.139 327" stroke="#FF2E2E" stroke-width="1.83594" stroke-linecap="round" stroke-linejoin="round"/>
</g>
<path d="M337.874 210.531V159.125H364.164C370.921 159.125 375.963 160.373 379.292 162.87C382.622 165.318 384.286 168.549 384.286 172.564C384.286 175.208 383.576 177.533 382.156 179.541C380.786 181.499 378.827 183.066 376.281 184.241C373.785 185.367 370.798 185.93 367.322 185.93L368.791 182.405C372.414 182.405 375.572 182.968 378.264 184.094C380.957 185.171 383.038 186.762 384.506 188.867C386.024 190.923 386.783 193.445 386.783 196.431C386.783 200.886 384.972 204.362 381.349 206.859C377.775 209.307 372.536 210.531 365.633 210.531H337.874ZM352.267 200.03H364.458C366.955 200.03 368.84 199.614 370.113 198.781C371.435 197.9 372.096 196.578 372.096 194.816C372.096 193.053 371.435 191.756 370.113 190.923C368.84 190.042 366.955 189.602 364.458 189.602H351.239V179.541H362.255C364.703 179.541 366.539 179.124 367.763 178.292C368.987 177.46 369.599 176.211 369.599 174.547C369.599 172.882 368.987 171.658 367.763 170.875C366.539 170.043 364.703 169.627 362.255 169.627H352.267V200.03ZM420.238 211.559C416.125 211.559 412.331 210.898 408.855 209.577C405.379 208.255 402.344 206.394 399.749 203.995C397.203 201.547 395.22 198.708 393.8 195.477C392.381 192.245 391.671 188.696 391.671 184.828C391.671 180.96 392.381 177.411 393.8 174.18C395.22 170.948 397.203 168.133 399.749 165.734C402.344 163.286 405.379 161.402 408.855 160.08C412.331 158.758 416.125 158.097 420.238 158.097C424.399 158.097 428.194 158.758 431.621 160.08C435.097 161.402 438.108 163.286 440.653 165.734C443.199 168.133 445.182 170.948 446.602 174.18C448.071 177.411 448.805 180.96 448.805 184.828C448.805 188.696 448.071 192.27 446.602 195.55C445.182 198.781 443.199 201.596 440.653 203.995C438.108 206.394 435.097 208.255 431.621 209.577C428.194 210.898 424.399 211.559 420.238 211.559ZM420.238 199.516C422.196 199.516 424.008 199.173 425.672 198.487C427.386 197.802 428.854 196.823 430.078 195.55C431.351 194.228 432.331 192.661 433.016 190.85C433.75 189.039 434.118 187.031 434.118 184.828C434.118 182.576 433.75 180.569 433.016 178.806C432.331 176.995 431.351 175.453 430.078 174.18C428.854 172.858 427.386 171.854 425.672 171.169C424.008 170.483 422.196 170.141 420.238 170.141C418.279 170.141 416.444 170.483 414.73 171.169C413.065 171.854 411.597 172.858 410.324 174.18C409.1 175.453 408.121 176.995 407.386 178.806C406.701 180.569 406.358 182.576 406.358 184.828C406.358 187.031 406.701 189.039 407.386 190.85C408.121 192.661 409.1 194.228 410.324 195.55C411.597 196.823 413.065 197.802 414.73 198.487C416.444 199.173 418.279 199.516 420.238 199.516ZM456.421 210.531V159.125H479.921C484.621 159.125 488.66 159.884 492.038 161.402C495.465 162.919 498.109 165.122 499.969 168.011C501.83 170.851 502.76 174.229 502.76 178.145C502.76 182.013 501.83 185.367 499.969 188.206C498.109 190.997 495.465 193.151 492.038 194.669C488.66 196.137 484.621 196.872 479.921 196.872H464.499L470.961 190.777V210.531H456.421ZM488.219 210.531L475.441 191.805H490.936L503.788 210.531H488.219ZM470.961 192.319L464.499 185.636H479.039C482.075 185.636 484.327 184.975 485.796 183.653C487.313 182.331 488.072 180.495 488.072 178.145C488.072 175.746 487.313 173.886 485.796 172.564C484.327 171.242 482.075 170.581 479.039 170.581H464.499L470.961 163.898V192.319ZM536.485 211.559C532.421 211.559 528.651 210.923 525.175 209.65C521.699 208.328 518.688 206.468 516.143 204.069C513.646 201.67 511.687 198.855 510.268 195.623C508.848 192.343 508.138 188.745 508.138 184.828C508.138 180.911 508.848 177.337 510.268 174.106C511.687 170.826 513.67 167.986 516.216 165.587C518.762 163.189 521.773 161.353 525.249 160.08C528.774 158.758 532.617 158.097 536.779 158.097C541.625 158.097 545.958 158.905 549.777 160.52C553.596 162.136 556.754 164.461 559.25 167.497L549.997 175.869C548.235 173.959 546.325 172.54 544.269 171.609C542.262 170.63 540.01 170.141 537.513 170.141C535.31 170.141 533.303 170.483 531.491 171.169C529.68 171.854 528.137 172.858 526.864 174.18C525.592 175.453 524.588 176.995 523.854 178.806C523.168 180.569 522.825 182.576 522.825 184.828C522.825 186.982 523.168 188.965 523.854 190.777C524.588 192.588 525.592 194.155 526.864 195.477C528.137 196.749 529.655 197.753 531.418 198.487C533.229 199.173 535.212 199.516 537.366 199.516C539.52 199.516 541.625 199.173 543.682 198.487C545.738 197.753 547.819 196.529 549.924 194.816L558.075 205.023C555.138 207.129 551.735 208.744 547.868 209.87C544 210.996 540.206 211.559 536.485 211.559ZM545.224 203.114V183.727H558.075V205.023L545.224 203.114ZM580.66 179.027H604.527V189.895H580.66V179.027ZM581.688 199.295H608.566V210.531H567.294V159.125H607.611V170.361H581.688V199.295ZM634.701 211.559C630.49 211.559 626.427 211.045 622.51 210.017C618.642 208.94 615.484 207.569 613.037 205.905L617.81 195.183C620.111 196.652 622.755 197.876 625.741 198.855C628.777 199.785 631.788 200.25 634.774 200.25C636.781 200.25 638.397 200.079 639.621 199.736C640.845 199.344 641.726 198.855 642.265 198.267C642.852 197.631 643.146 196.896 643.146 196.064C643.146 194.889 642.607 193.959 641.53 193.273C640.453 192.588 639.058 192.025 637.344 191.584C635.631 191.144 633.721 190.703 631.616 190.262C629.56 189.822 627.479 189.259 625.374 188.573C623.318 187.888 621.433 187.007 619.719 185.93C618.006 184.804 616.61 183.359 615.533 181.597C614.456 179.785 613.918 177.509 613.918 174.767C613.918 171.683 614.75 168.892 616.415 166.395C618.128 163.898 620.674 161.891 624.052 160.373C627.43 158.856 631.641 158.097 636.683 158.097C640.062 158.097 643.366 158.489 646.597 159.272C649.878 160.006 652.791 161.108 655.337 162.577L650.857 173.372C648.409 172.05 645.985 171.071 643.587 170.434C641.188 169.749 638.862 169.406 636.61 169.406C634.603 169.406 632.987 169.627 631.763 170.067C630.539 170.459 629.658 170.997 629.119 171.683C628.581 172.368 628.312 173.152 628.312 174.033C628.312 175.159 628.826 176.065 629.854 176.75C630.931 177.386 632.326 177.925 634.04 178.366C635.802 178.757 637.712 179.173 639.768 179.614C641.873 180.055 643.954 180.618 646.01 181.303C648.115 181.94 650.025 182.821 651.738 183.947C653.452 185.024 654.822 186.468 655.851 188.28C656.928 190.042 657.466 192.27 657.466 194.962C657.466 197.949 656.609 200.715 654.896 203.261C653.231 205.758 650.71 207.765 647.332 209.283C644.003 210.801 639.792 211.559 634.701 211.559ZM337.874 300.531V249.125H361.374C366.074 249.125 370.113 249.884 373.491 251.402C376.918 252.919 379.562 255.122 381.422 258.011C383.283 260.851 384.213 264.229 384.213 268.145C384.213 272.013 383.283 275.367 381.422 278.206C379.562 281.046 376.918 283.249 373.491 284.816C370.113 286.333 366.074 287.092 361.374 287.092H345.952L352.414 280.777V300.531H337.874ZM352.414 282.319L345.952 275.636H360.492C363.528 275.636 365.78 274.975 367.249 273.653C368.766 272.331 369.525 270.495 369.525 268.145C369.525 265.746 368.766 263.886 367.249 262.564C365.78 261.242 363.528 260.581 360.492 260.581H345.952L352.414 253.898V282.319ZM391.302 300.531V249.125H414.802C419.502 249.125 423.541 249.884 426.919 251.402C430.347 252.919 432.99 255.122 434.851 258.011C436.711 260.851 437.641 264.229 437.641 268.145C437.641 272.013 436.711 275.367 434.851 278.206C432.99 280.997 430.347 283.151 426.919 284.669C423.541 286.137 419.502 286.872 414.802 286.872H399.38L405.843 280.777V300.531H391.302ZM423.101 300.531L410.323 281.805H425.818L438.669 300.531H423.101ZM405.843 282.319L399.38 275.636H413.921C416.956 275.636 419.209 274.975 420.677 273.653C422.195 272.331 422.954 270.495 422.954 268.145C422.954 265.746 422.195 263.886 420.677 262.564C419.209 261.242 416.956 260.581 413.921 260.581H399.38L405.843 253.898V282.319ZM471.587 301.559C467.474 301.559 463.68 300.898 460.204 299.577C456.728 298.255 453.692 296.394 451.098 293.995C448.552 291.547 446.569 288.708 445.149 285.477C443.729 282.245 443.02 278.696 443.02 274.828C443.02 270.96 443.729 267.411 445.149 264.18C446.569 260.948 448.552 258.133 451.098 255.734C453.692 253.286 456.728 251.402 460.204 250.08C463.68 248.758 467.474 248.097 471.587 248.097C475.748 248.097 479.542 248.758 482.97 250.08C486.446 251.402 489.457 253.286 492.002 255.734C494.548 258.133 496.531 260.948 497.951 264.18C499.42 267.411 500.154 270.96 500.154 274.828C500.154 278.696 499.42 282.27 497.951 285.55C496.531 288.781 494.548 291.596 492.002 293.995C489.457 296.394 486.446 298.255 482.97 299.577C479.542 300.898 475.748 301.559 471.587 301.559ZM471.587 289.516C473.545 289.516 475.356 289.173 477.021 288.487C478.735 287.802 480.203 286.823 481.427 285.55C482.7 284.228 483.679 282.661 484.365 280.85C485.099 279.039 485.466 277.031 485.466 274.828C485.466 272.576 485.099 270.569 484.365 268.806C483.679 266.995 482.7 265.453 481.427 264.18C480.203 262.858 478.735 261.854 477.021 261.169C475.356 260.483 473.545 260.141 471.587 260.141C469.628 260.141 467.792 260.483 466.079 261.169C464.414 261.854 462.946 262.858 461.673 264.18C460.449 265.453 459.47 266.995 458.735 268.806C458.05 270.569 457.707 272.576 457.707 274.828C457.707 277.031 458.05 279.039 458.735 280.85C459.47 282.661 460.449 284.228 461.673 285.55C462.946 286.823 464.414 287.802 466.079 288.487C467.792 289.173 469.628 289.516 471.587 289.516ZM517.93 301.559C514.16 301.559 510.733 300.923 507.649 299.65C504.613 298.328 502.092 296.443 500.084 293.995L508.016 284.595C509.387 286.358 510.806 287.704 512.275 288.634C513.744 289.516 515.286 289.956 516.902 289.956C521.21 289.956 523.364 287.459 523.364 282.466V260.361H505.592V249.125H537.758V281.584C537.758 288.292 536.069 293.31 532.691 296.639C529.313 299.919 524.392 301.559 517.93 301.559ZM560.938 269.027H584.805V279.895H560.938V269.027ZM561.966 289.295H588.844V300.531H547.572V249.125H587.889V260.361H561.966V289.295ZM607.855 300.531V260.655H592.066V249.125H638.111V260.655H622.396V300.531H607.855ZM668.735 301.559C664.622 301.559 660.828 300.898 657.352 299.577C653.876 298.255 650.841 296.394 648.246 293.995C645.7 291.547 643.717 288.708 642.297 285.477C640.878 282.245 640.168 278.696 640.168 274.828C640.168 270.96 640.878 267.411 642.297 264.18C643.717 260.948 645.7 258.133 648.246 255.734C650.841 253.286 653.876 251.402 657.352 250.08C660.828 248.758 664.622 248.097 668.735 248.097C672.896 248.097 676.691 248.758 680.118 250.08C683.594 251.402 686.605 253.286 689.15 255.734C691.696 258.133 693.679 260.948 695.099 264.18C696.568 267.411 697.302 270.96 697.302 274.828C697.302 278.696 696.568 282.27 695.099 285.55C693.679 288.781 691.696 291.596 689.15 293.995C686.605 296.394 683.594 298.255 680.118 299.577C676.691 300.898 672.896 301.559 668.735 301.559ZM668.735 289.516C670.693 289.516 672.505 289.173 674.169 288.487C675.883 287.802 677.352 286.823 678.575 285.55C679.848 284.228 680.828 282.661 681.513 280.85C682.247 279.039 682.615 277.031 682.615 274.828C682.615 272.576 682.247 270.569 681.513 268.806C680.828 266.995 679.848 265.453 678.575 264.18C677.352 262.858 675.883 261.854 674.169 261.169C672.505 260.483 670.693 260.141 668.735 260.141C666.777 260.141 664.941 260.483 663.227 261.169C661.562 261.854 660.094 262.858 658.821 264.18C657.597 265.453 656.618 266.995 655.883 268.806C655.198 270.569 654.855 272.576 654.855 274.828C654.855 277.031 655.198 279.039 655.883 280.85C656.618 282.661 657.597 284.228 658.821 285.55C660.094 286.823 661.562 287.802 663.227 288.487C664.941 289.173 666.777 289.516 668.735 289.516ZM722.983 301.559C718.773 301.559 714.709 301.045 710.793 300.017C706.925 298.94 703.767 297.569 701.319 295.905L706.093 285.183C708.394 286.652 711.038 287.876 714.024 288.855C717.059 289.785 720.07 290.25 723.057 290.25C725.064 290.25 726.68 290.079 727.904 289.736C729.128 289.344 730.009 288.855 730.547 288.267C731.135 287.631 731.429 286.896 731.429 286.064C731.429 284.889 730.89 283.959 729.813 283.273C728.736 282.588 727.341 282.025 725.627 281.584C723.914 281.144 722.004 280.703 719.899 280.262C717.843 279.822 715.762 279.259 713.657 278.573C711.601 277.888 709.716 277.007 708.002 275.93C706.289 274.804 704.893 273.359 703.816 271.597C702.739 269.785 702.201 267.509 702.201 264.767C702.201 261.683 703.033 258.892 704.697 256.395C706.411 253.898 708.957 251.891 712.335 250.373C715.713 248.856 719.923 248.097 724.966 248.097C728.344 248.097 731.649 248.489 734.88 249.272C738.16 250.006 741.073 251.108 743.619 252.577L739.14 263.372C736.692 262.05 734.268 261.071 731.869 260.434C729.47 259.749 727.145 259.406 724.893 259.406C722.885 259.406 721.27 259.627 720.046 260.067C718.822 260.459 717.941 260.997 717.402 261.683C716.864 262.368 716.594 263.152 716.594 264.033C716.594 265.159 717.108 266.065 718.136 266.75C719.214 267.386 720.609 267.925 722.322 268.366C724.085 268.757 725.994 269.173 728.051 269.614C730.156 270.055 732.236 270.618 734.293 271.303C736.398 271.94 738.307 272.821 740.021 273.947C741.734 275.024 743.105 276.468 744.133 278.28C745.21 280.042 745.749 282.27 745.749 284.962C745.749 287.949 744.892 290.715 743.179 293.261C741.514 295.758 738.993 297.765 735.615 299.283C732.285 300.801 728.075 301.559 722.983 301.559Z" fill="white"/>
<defs>
<clipPath id="clip0_6_14">
<rect width="470" height="470" fill="white" transform="translate(0.428345)"/>
</clipPath>
</defs>
</svg>
